<svg xmlns="http://www.w3.org/2000/svg" width="20" height="32" viewBox="0 0 20 32" fill="none"><path d="M10.7578 14.4224C11.4901 14.3167 12.2159 14.1968 12.3685 14.1629C12.5206 14.1241 12.9823 14.0668 13.3944 14.0357C13.8066 14.0046 14.3292 13.9897 14.5589 14.0062C14.7886 14.0226 15.0829 14.066 15.216 14.1044C15.3491 14.1428 15.5014 14.1638 15.5579 14.1568C15.6143 14.1498 15.7503 14.1629 15.8663 14.1835C15.9767 14.1997 16.1437 14.2689 16.2422 14.3265C16.3356 14.3848 16.4724 14.5226 16.545 14.6383C16.6473 14.7953 16.7583 15.1659 17.0137 16.2221C17.196 16.9831 17.4514 18.1541 17.5838 18.8214C17.7167 19.4937 17.8953 20.4447 17.9814 20.9431C18.0676 21.4414 18.2133 22.142 18.3025 22.5003C18.3917 22.8585 18.5081 23.4629 18.5575 23.8411C18.6101 24.2538 18.6361 24.6598 18.6225 24.8561C18.6077 25.0376 18.6112 25.656 18.6364 26.2268C18.6616 26.7975 18.6817 27.369 18.6825 27.4936C18.6782 27.6189 18.6386 27.8135 18.5919 27.9291C18.5503 28.044 18.4076 28.2464 18.2797 28.382C18.1327 28.535 17.9573 28.6615 17.7971 28.7263C17.642 28.7904 17.0253 28.9118 16.1661 29.0482C15.4044 29.1726 14.4277 29.3286 13.993 29.3974C13.5587 29.4712 11.7146 29.7297 9.8952 29.9752C8.07584 30.2207 6.07047 30.4742 5.43303 30.5382L5.41528 30.54C4.29638 30.6492 4.26976 30.6518 4.03335 30.547C3.8989 30.4938 3.72369 30.3908 3.63966 30.3213C3.55608 30.2569 3.43375 30.1073 3.36627 29.9909C3.30391 29.8739 3.22068 29.6397 3.18937 29.4639C3.15292 29.2887 3.03767 28.6393 2.92551 28.0244C2.80822 27.4101 2.59585 26.3135 2.44786 25.5883C2.29988 24.863 2.0715 23.7036 1.95182 23.0047C1.78703 22.0919 1.68593 21.311 1.58393 20.2307C1.46248 18.9332 1.45443 18.6697 1.50086 18.3196C1.53783 18.0954 1.62194 17.7606 1.69322 17.5721C1.77769 17.357 1.93601 17.0979 2.13333 16.8688C2.35321 16.602 2.55071 16.4328 2.8555 16.2453C3.09112 16.0963 3.50408 15.9004 3.80055 15.7938C4.0919 15.6878 4.5918 15.536 4.91145 15.4565C5.23066 15.372 6.00979 15.2105 6.64237 15.0922C7.27494 14.9739 8.158 14.8145 8.60811 14.7437C9.05822 14.673 10.0256 14.5281 10.7578 14.4224Z" fill="#DDF770"></path><path d="M5.14404 2.89677C5.32453 2.7836 5.57179 2.64705 5.69962 2.59596C5.82745 2.54486 6.16532 2.47299 6.45351 2.43756C6.7884 2.39133 7.08409 2.38025 7.27245 2.41269C7.43326 2.43336 7.7275 2.52354 7.92562 2.60533C8.12374 2.68712 8.43796 2.88099 8.63148 3.02906C8.82021 3.18276 9.08654 3.43307 9.21673 3.58386C9.34692 3.73465 9.56971 4.03075 9.71056 4.24089C9.84663 4.45667 10.0521 4.79533 10.1601 4.99434C10.2686 5.19834 10.4879 5.63134 10.6449 5.96081C10.807 6.28963 11.0547 6.86067 11.1995 7.23206C11.3496 7.60281 11.5867 8.2914 11.7296 8.75906C11.8778 9.22608 12.0616 9.91111 12.1369 10.2759C12.2175 10.64 12.3414 11.3071 12.414 11.7582C12.4866 12.2092 12.5615 12.8621 12.5826 13.2134C12.6086 13.5589 12.6147 13.8614 12.6004 13.8784C12.586 13.8953 12.1071 13.9896 11.5335 14.0904C10.9598 14.1913 10.3381 14.2879 9.80659 14.328L9.7089 13.6577C9.6545 13.2903 9.54109 12.6219 9.45281 12.1728C9.36977 11.723 9.167 10.828 9.00779 10.1804C8.85382 9.53215 8.60255 8.62796 8.46096 8.1753C8.31938 7.72263 8.09295 7.09339 7.95878 6.78134C7.8303 6.47364 7.61238 6.05564 7.48292 5.85421C7.34866 5.65843 7.17023 5.44281 7.07961 5.37813C6.99424 5.31281 6.86125 5.24828 6.78564 5.23231C6.70433 5.21198 6.59953 5.22486 6.52365 5.26452C6.45255 5.29853 6.34361 5.38269 6.28091 5.45105C6.22346 5.51877 6.11397 5.71419 6.04415 5.87947C5.97477 6.04974 5.87975 6.40513 5.82899 6.6641C5.77868 6.92806 5.7132 7.37586 5.68566 7.65724C5.65288 7.93927 5.60965 8.80891 5.59541 9.58905C5.57593 10.3698 5.56703 11.3262 5.57039 11.715C5.57899 12.1032 5.63368 13.0012 5.814 14.9958L5.70054 15.0299C5.63332 15.0483 5.25489 15.1403 4.85549 15.2349C4.4561 15.3295 3.89834 15.4891 3.61603 15.5895C3.33417 15.6949 3.09152 15.7652 3.07444 15.7521C3.05782 15.7441 2.98128 15.1318 2.90481 14.4032C2.8279 13.6696 2.75079 12.5823 2.7289 11.9886C2.71225 11.3942 2.71014 10.5503 2.72936 10.1183C2.74335 9.68698 2.79237 8.99859 2.82433 8.5903C2.86154 8.18136 2.95772 7.48718 3.02934 7.04874C3.1062 6.60966 3.2294 6.03851 3.30636 5.77633C3.37808 5.51478 3.50409 5.15053 3.58213 4.95897C3.66018 4.76741 3.82124 4.43928 3.9403 4.23258C4.05936 4.02587 4.30905 3.68179 4.48665 3.47799C4.67383 3.26291 4.95875 3.01559 5.14404 2.89677Z" fill="black"></path><path d="M8.37756 17.8599C8.54324 17.7587 8.78182 17.6434 8.91056 17.6023C9.03929 17.5612 9.21039 17.5199 9.29902 17.504C9.38285 17.4937 9.60997 17.486 9.80131 17.4928C9.99266 17.4996 10.2938 17.5485 10.4739 17.6072C10.6536 17.6609 10.948 17.8118 11.134 17.9355C11.3608 18.0997 11.5295 18.2659 11.6721 18.4961C11.8262 18.7349 11.901 18.9178 11.9502 19.1695C11.9933 19.4119 11.9957 19.6138 11.9523 19.8365C11.9209 20.0172 11.8487 20.2738 11.7924 20.4121C11.7365 20.5555 11.6452 20.7183 11.5873 20.781C11.5055 20.872 11.4861 20.9502 11.5121 21.1795C11.5265 21.3394 11.5844 21.6861 11.6398 21.9472C11.6956 22.2133 11.8199 22.7085 11.9248 23.0494C12.0709 23.5521 12.102 23.7201 12.0764 23.9052C12.0562 24.0341 12.0183 24.2005 11.9832 24.2806C11.9485 24.3658 11.8507 24.5143 11.7597 24.6215C11.674 24.7281 11.4766 24.8888 11.3257 24.9781C11.1094 25.1058 10.9707 25.1532 10.6825 25.1886C10.4148 25.2165 10.2553 25.2108 10.0962 25.1495C9.97592 25.1087 9.79126 25 9.6879 24.9116C9.57886 24.8188 9.45075 24.6324 9.37594 24.4495C9.30817 24.286 9.17861 23.9077 9.08861 23.6155C8.99817 23.3183 8.87122 22.7931 8.68128 21.8055L8.41341 21.7727C8.26354 21.7558 8.04536 21.6866 7.92286 21.6208C7.80035 21.5549 7.61686 21.4006 7.52082 21.2759C7.41955 21.1519 7.31239 20.9629 7.28149 20.8555C7.25059 20.7481 7.21408 20.5201 7.19826 20.3451C7.1829 20.1752 7.1856 19.912 7.20393 19.7632C7.22271 19.6193 7.30654 19.3159 7.38756 19.0987C7.48593 18.8389 7.62758 18.589 7.80427 18.3752C7.96661 18.1783 8.19706 17.9731 8.37756 17.8599Z" fill="black"></path></svg>